<svg width="20" height="20" viewBox="0 0 20 20" fill="none" xmlns="http://www.w3.org/2000/svg">
<path d="M9.18405 2.112C9.24202 2.06515 9.30973 2.03186 9.38223 2.01456C9.45472 1.99726 9.53017 1.99638 9.60305 2.012L16.603 3.511C16.7147 3.53522 16.8147 3.59695 16.8864 3.68593C16.9581 3.7749 16.9971 3.88574 16.997 4V16C16.9971 16.1144 16.9579 16.2253 16.886 16.3143C16.8141 16.4033 16.7139 16.465 16.602 16.489L9.60205 17.989C9.52928 18.0045 9.45397 18.0035 9.38162 17.9862C9.30926 17.9689 9.24169 17.9356 9.18382 17.8889C9.12595 17.8421 9.07924 17.783 9.0471 17.7159C9.01496 17.6488 8.99821 17.5754 8.99805 17.501V2.501C8.99806 2.42639 9.01478 2.35273 9.04696 2.28542C9.07914 2.21811 9.12598 2.15885 9.18405 2.112ZM12.5 10C12.5 9.9015 12.4806 9.80398 12.443 9.71298C12.4053 9.62199 12.35 9.53931 12.2804 9.46967C12.2107 9.40002 12.1281 9.34478 12.0371 9.30709C11.9461 9.2694 11.8485 9.25 11.75 9.25C11.6516 9.25 11.554 9.2694 11.463 9.30709C11.372 9.34478 11.2894 9.40002 11.2197 9.46967C11.1501 9.53931 11.0948 9.62199 11.0571 9.71298C11.0194 9.80398 11 9.9015 11 10C11 10.1989 11.0791 10.3897 11.2197 10.5303C11.3604 10.671 11.5511 10.75 11.75 10.75C11.949 10.75 12.1397 10.671 12.2804 10.5303C12.421 10.3897 12.5 10.1989 12.5 10Z" fill="#787DB4"/>
<path d="M7.99999 3.002H3.49799C3.36538 3.002 3.2382 3.05468 3.14443 3.14845C3.05066 3.24221 2.99799 3.36939 2.99799 3.502V16.497C2.99799 16.6296 3.05066 16.7568 3.14443 16.8506C3.2382 16.9443 3.36538 16.997 3.49799 16.997H7.99999V3.002Z" fill="#787DB4"/>
</svg>
